<?xml version="1.0" standalone="no"?>
<!DOCTYPE svg PUBLIC "-//W3C//DTD SVG 20010904//EN"
 "http://www.w3.org/TR/2001/REC-SVG-20010904/DTD/svg10.dtd">
<svg version="1.0" xmlns="http://www.w3.org/2000/svg"
 width="500.000000pt" height="500.000000pt" viewBox="0 0 500.000000 500.000000"
 preserveAspectRatio="xMidYMid meet">

<g transform="translate(0.000000,500.000000) scale(0.100000,-0.100000)"
fill="#000000" stroke="none">
<path d="M1370 4389 c-101 -13 -178 -37 -260 -81 -100 -55 -140 -87 -195 -161
-61 -81 -90 -139 -115 -231 -20 -74 -20 -101 -20 -1417 0 -1450 -2 -1397 52
-1503 31 -61 120 -166 178 -210 145 -110 386 -124 522 -30 49 34 110 109 144
176 29 57 20 58 203 -14 457 -180 777 -183 1226 -8 211 82 188 81 226 10 49
-93 131 -170 209 -198 164 -57 336 -27 474 82 64 51 153 178 176 253 20 64 20
88 20 1448 0 1347 -1 1385 -20 1447 -43 140 -147 270 -271 341 -147 83 -300
115 -466 96 -116 -13 -179 -32 -287 -86 -184 -92 -263 -188 -429 -524 -67
-135 -146 -298 -176 -362 -30 -65 -57 -117 -60 -117 -6 0 -67 124 -123 250
-18 41 -77 163 -131 270 -147 291 -234 394 -409 483 -149 75 -317 106 -468 86z
m249 -371 c65 -31 100 -57 153 -112 98 -100 123 -144 259 -451 34 -77 81 -183
105 -236 24 -53 44 -99 44 -103 0 -3 47 -110 105 -237 58 -127 108 -241 111
-254 3 -12 18 -38 34 -56 23 -28 34 -34 68 -34 44 0 86 30 98 69 4 12 45 107
92 211 47 105 104 235 127 290 24 55 71 161 105 235 34 74 75 169 92 210 96
237 212 388 356 463 213 112 451 39 555 -172 l32 -66 3 -1285 c2 -941 0 -1296
-8 -1325 -42 -145 -175 -228 -305 -190 -107 31 -173 118 -215 283 -21 84 -90
96 -197 34 -183 -107 -371 -177 -556 -207 -258 -42 -508 8 -813 160 -242 122
-266 119 -309 -40 -47 -170 -171 -263 -312 -235 -51 10 -65 19 -113 68 -98
102 -91 -27 -88 1447 l3 1290 32 66 c77 155 218 235 393 223 49 -4 85 -15 149
-46z"/>
<path d="M1571 3204 c-84 -17 -154 -58 -223 -129 -107 -109 -147 -230 -92
-274 54 -43 105 -20 147 64 55 110 156 170 275 163 59 -3 78 -9 139 -46 79
-47 118 -52 151 -22 63 59 31 126 -92 195 -99 55 -198 71 -305 49z"/>
<path d="M3282 3209 c-106 -13 -248 -91 -272 -148 -15 -37 -7 -74 21 -102 30
-30 80 -21 154 27 53 33 69 38 136 42 61 4 85 0 121 -16 65 -28 125 -87 159
-154 41 -81 88 -100 143 -57 95 75 -94 343 -278 393 -73 20 -113 23 -184 15z"/>
<path d="M1660 2828 c-20 -21 -21 -32 -18 -156 3 -127 4 -135 27 -153 25 -21
54 -18 81 7 12 12 15 43 15 148 0 118 -2 136 -19 155 -25 27 -60 27 -86 -1z"/>
<path d="M3250 2830 c-18 -18 -20 -33 -20 -150 0 -127 1 -132 25 -156 19 -18
31 -23 48 -19 46 14 49 24 48 171 -1 129 -3 140 -22 157 -28 22 -54 22 -79 -3z"/>
<path d="M1846 2276 c-80 -30 -161 -136 -191 -251 -20 -78 -19 -217 1 -286 48
-160 163 -302 323 -397 40 -24 74 -42 76 -40 1 2 10 18 19 35 9 18 43 61 76
96 103 111 250 157 425 136 90 -11 198 -57 251 -107 46 -43 114 -132 114 -148
0 -21 8 -18 82 25 162 95 273 234 324 406 20 70 23 209 4 275 -30 111 -106
214 -185 251 -66 31 -110 25 -223 -30 -309 -152 -549 -154 -855 -10 -121 57
-178 68 -241 45z m181 -125 c183 -92 359 -136 513 -128 149 8 319 59 456 137
84 49 157 32 141 -31 -6 -24 -99 -99 -167 -134 -119 -62 -335 -115 -466 -115
-97 0 -241 29 -353 71 -112 42 -158 66 -236 126 -40 31 -50 45 -50 68 0 21 7
33 24 41 28 14 54 8 138 -35z"/>
</g>
</svg>
